<svg width="30" height="34" viewBox="0 0 15 17" fill="none" xmlns="http://www.w3.org/2000/svg">
<path d="M5.06673 7.69122H3.51026V9.24768H5.06673V7.69122ZM8.17965 7.69122H6.62319V9.24768H8.17965V7.69122ZM11.2926 7.69122H9.73611V9.24768H11.2926V7.69122ZM12.849 2.2436H12.0708V0.687134H10.5143V2.2436H4.2885V0.687134H2.73203V2.2436H1.9538C1.08996 2.2436 0.405121 2.944 0.405121 3.80006L0.397339 14.6953C0.397339 15.5514 1.08996 16.2518 1.9538 16.2518H12.849C13.7051 16.2518 14.4055 15.5514 14.4055 14.6953V3.80006C14.4055 2.944 13.7051 2.2436 12.849 2.2436ZM12.849 14.6953H1.9538V6.13475H12.849V14.6953Z" fill="#A7A7A7"/>
</svg>
