<svg width="56" height="44" viewBox="0 0 28 22" fill="none" xmlns="http://www.w3.org/2000/svg">
<path d="M10.0149 10.37C12.8418 10.37 15.1386 8.07311 15.1386 5.2462C15.1386 2.4193 12.8418 0.122437 10.0149 0.122437C7.18796 0.122437 4.89111 2.4193 4.89111 5.2462C4.89111 8.07311 7.18796 10.37 10.0149 10.37Z" fill="#A5AFBC"/>
<path d="M19.963 18.3744V20.712C19.963 21.2693 19.5145 21.7314 18.9437 21.7314H1.73758C1.18035 21.7314 0.718262 21.2693 0.718262 20.712V18.3744C0.718262 15.099 3.38207 12.4352 6.65748 12.4352H14.0238C14.6897 12.4352 15.3285 12.5439 15.9265 12.7614C15.9265 12.7614 15.9265 12.7478 15.9401 12.7614C18.2777 13.5496 19.963 15.765 19.963 18.3744Z" fill="white"/>
<path d="M19.963 18.3744V20.712C19.963 21.2693 19.5145 21.7314 18.9437 21.7314H1.73758C1.18035 21.7314 0.718262 21.2693 0.718262 20.712V18.3744C0.718262 15.099 3.38207 12.4352 6.65748 12.4352H14.0238C14.6897 12.4352 15.3285 12.5439 15.9265 12.7614C15.9265 12.7614 15.9265 12.7478 15.9401 12.7614C18.2777 13.5496 19.963 15.765 19.963 18.3744Z" fill="#A5AFBC"/>
<path d="M27.8987 17.2057V19.1221C27.8987 19.5706 27.5317 19.9375 27.0832 19.9375H22.0003V18.3746C22.0003 17.0019 21.6469 15.6972 21.0353 14.5691C20.7771 14.107 20.4917 13.6721 20.1655 13.278C19.9344 13.0198 19.7034 12.7615 19.4587 12.5441H23.237C23.3865 12.5441 23.5224 12.5441 23.6583 12.5712C23.835 12.5848 24.0117 12.612 24.1884 12.6528C25.2213 12.8702 26.1183 13.4411 26.7842 14.2022C26.893 14.3245 27.0017 14.4604 27.0968 14.6099C27.1104 14.6099 27.1104 14.6099 27.0968 14.6235C27.3551 15.004 27.5589 15.4117 27.6948 15.8602C27.7356 16.0097 27.7764 16.1592 27.8036 16.3087C27.8715 16.5942 27.8987 16.8932 27.8987 17.2057Z" fill="#A5AFBC" fill-opacity="0.5"/>
<path d="M20.2629 10.1796C22.5072 10.1796 24.3266 8.36023 24.3266 6.11592C24.3266 3.87162 22.5072 2.05225 20.2629 2.05225C18.0186 2.05225 16.1992 3.87162 16.1992 6.11592C16.1992 8.36023 18.0186 10.1796 20.2629 10.1796Z" fill="#A5AFBC" fill-opacity="0.5"/>
</svg>
