<svg width="66" height="66" viewBox="0 0 33 33" fill="none" xmlns="http://www.w3.org/2000/svg">
<path d="M16.3224 3.67017C8.82017 3.67017 2.73145 9.67737 2.73145 17.0708V22.9013C2.73145 25.7418 5.02831 28.0523 7.86881 28.0523H9.18713C9.74435 28.0523 10.2064 27.6038 10.2064 27.0329V18.7832C10.2064 18.2124 9.74435 17.7639 9.18713 17.7639H7.86881C6.69999 17.7639 5.62631 18.1717 4.77008 18.8376V17.0708C4.77008 10.8054 9.94822 5.7088 16.3224 5.7088C22.6829 5.7088 27.8746 10.8054 27.8746 17.0708V18.8376C27.0048 18.1717 25.9311 17.7639 24.7623 17.7639H23.4576C22.8868 17.7639 22.4383 18.2124 22.4383 18.7832V27.0329C22.4383 27.6038 22.8868 28.0523 23.4576 28.0523H24.7623C27.6028 28.0523 29.9133 25.7418 29.9133 22.9013V17.0708C29.9133 9.67737 23.8109 3.67017 16.3224 3.67017Z" fill="#A5AFBC"/>
</svg>
