<svg width="56" height="42" viewBox="0 0 28 21" fill="none" xmlns="http://www.w3.org/2000/svg">
<path d="M26.8815 10.3223H21.2957C20.7385 10.3223 20.2764 9.86024 20.2764 9.30301V1.23001C20.2764 0.67278 20.7385 0.21069 21.2957 0.21069H26.8815C27.4388 0.21069 27.9009 0.67278 27.9009 1.23001V9.30301C27.9009 9.86024 27.4388 10.3223 26.8815 10.3223Z" fill="white" fill-opacity="0.44"/>
<path d="M16.9585 15.3645H11.5086C10.9513 15.3645 10.4893 14.9024 10.4893 14.3452V1.22996C10.4893 0.672729 10.9513 0.210637 11.5086 0.210637H16.9585C17.5158 0.210637 17.9779 0.672729 17.9779 1.22996V14.3452C17.9779 14.9024 17.5158 15.3645 16.9585 15.3645Z" fill="white"/>
<path d="M7.32344 20.4067H1.73758C1.18035 20.4067 0.718262 19.9446 0.718262 19.3874V1.2299C0.718262 0.672676 1.18035 0.210585 1.73758 0.210585H7.32344C7.88067 0.210585 8.34276 0.672676 8.34276 1.2299V19.3874C8.34276 19.9446 7.89426 20.4067 7.32344 20.4067Z" fill="white"/>
</svg>
