<svg width="26" height="26" viewBox="0 0 13 13" fill="none" xmlns="http://www.w3.org/2000/svg">
<path fill-rule="evenodd" clip-rule="evenodd" d="M6.5 0.40625C6.84518 0.40625 7.125 0.686072 7.125 1.03125V5.875H11.9688C12.3139 5.875 12.5938 6.15482 12.5938 6.5C12.5938 6.84518 12.3139 7.125 11.9688 7.125H7.125V11.9688C7.125 12.3139 6.84518 12.5938 6.5 12.5938C6.15482 12.5938 5.875 12.3139 5.875 11.9688V7.125H1.03125C0.686072 7.125 0.40625 6.84518 0.40625 6.5C0.40625 6.15482 0.686072 5.875 1.03125 5.875H5.875V1.03125C5.875 0.686072 6.15482 0.40625 6.5 0.40625Z" fill="#0F172A"/>
</svg>
