<svg width="66" height="74" viewBox="0 0 33 37" fill="none" xmlns="http://www.w3.org/2000/svg">
<path d="M0.954346 34.4266V37H5.51725V34.4266C3.99625 34.4266 2.47526 34.4266 0.954346 34.4266Z" fill="#FFA412"/>
<path d="M2.0155 0V33.6045H4.45601V4.4493V2.2832V0L2.0155 0Z" fill="#FFA412"/>
<path d="M12.8222 15.2107V20.402C12.8222 20.6105 12.7987 20.7885 12.7448 20.9898L11.6007 25.26C11.5466 25.4614 11.5233 25.6394 11.5233 25.8478V31.8374C11.6422 32.5861 12.2879 33.1372 13.046 33.1372C13.8041 33.1372 14.4497 32.5861 14.5687 31.8374V26.3413C14.5687 26.1052 14.5988 25.9035 14.6678 25.6776L15.8033 21.9613C15.9719 21.4101 17.0282 21.4101 17.1968 21.9613L18.3579 25.7615C18.4091 25.929 18.4314 26.0785 18.4314 26.2537V31.8374C18.5504 32.5861 19.196 33.1372 19.9541 33.1372C20.7122 33.1372 21.3578 32.5861 21.4768 31.8374V25.8478C21.4768 25.6394 21.4534 25.4614 21.3994 25.26L20.2553 20.9898C20.2014 20.7885 20.1779 20.6105 20.1779 20.402V15.2107C20.1779 14.5853 20.4009 14.047 20.8432 13.6047L23.9279 10.52C24.2897 10.1582 24.4721 9.71773 24.4721 9.20604V4.4493V2.66473C24.4721 2.5291 24.4534 2.40286 24.4148 2.2832C24.3746 2.15833 24.3129 2.04071 24.2286 1.9271C23.9581 1.56205 23.5252 1.33313 23.0493 1.33313C22.5734 1.33313 22.1405 1.56205 21.87 1.9271C21.7854 2.04131 21.7234 2.15961 21.6832 2.28508C21.6451 2.40423 21.6265 2.52987 21.6265 2.66473V4.4493V8.04515C21.6265 9.39382 19.2119 11.5167 17.9838 11.5167H15.0163C13.6213 11.5167 11.3736 9.24231 11.3736 8.04515V4.4493V2.66473C11.3736 2.5291 11.3549 2.40286 11.3163 2.2832C11.276 2.15833 11.2143 2.04071 11.1301 1.9271C10.8596 1.56205 10.4267 1.33313 9.95079 1.33313C9.47486 1.33313 9.04204 1.56205 8.77147 1.9271C8.68722 2.04071 8.62551 2.15833 8.58531 2.2832C8.54673 2.40286 8.52795 2.5291 8.52795 2.66473V4.4493V9.20604C8.52795 9.71773 8.71035 10.1582 9.07217 10.52L12.1569 13.6047C12.5992 14.047 12.8222 14.5853 12.8222 15.2107Z" fill="#FFA412"/>
<path d="M16.5 5.58008C15.1903 5.58008 14.1285 6.64179 14.1285 7.95154C14.1285 9.2612 15.1903 10.3229 16.5 10.3229C17.8097 10.3229 18.8715 9.2612 18.8715 7.95154C18.8715 6.64179 17.8097 5.58008 16.5 5.58008Z" fill="#FFA412"/>
<path d="M12.1958 4.44934H20.8042V2.66477C20.8042 2.53682 20.815 2.40999 20.8377 2.28503L12.162 2.28333C12.1849 2.40879 12.1958 2.53631 12.1958 2.66477V4.44934Z" fill="#FFA412"/>
<path d="M5.27832 2.2832V4.4493H7.70577V2.66473C7.70577 2.53619 7.7167 2.40867 7.73957 2.2832H5.27832Z" fill="#FFA412"/>
<path d="M25.2943 4.4493H27.7217V2.2832H25.2605C25.2834 2.40867 25.2943 2.53619 25.2943 2.66473V4.4493Z" fill="#FFA412"/>
<path d="M28.5441 4.4493V33.6045H30.9845V0H28.5441V2.2832V4.4493Z" fill="#FFA412"/>
<path d="M27.4828 34.4266V37H32.0457V34.4266C30.5248 34.4266 29.0038 34.4266 27.4828 34.4266Z" fill="#FFA412"/>
</svg>
