<svg width="72" height="38" viewBox="0 0 36 19" fill="none" xmlns="http://www.w3.org/2000/svg">
<path d="M3.0742 14.7641C3.3398 15.5016 4.04671 15.9967 4.8327 15.9967C5.04719 15.9967 5.25871 15.9597 5.46127 15.8866L15.8739 12.1342C15.9959 12.0902 16.1104 12.0346 16.2167 11.969C16.3099 11.96 16.4021 11.9436 16.4905 11.9119L24.3885 9.06562L23.6614 12.1182C23.5353 12.6475 23.7569 13.344 24.1661 13.7032L26.8024 16.0183C27.0478 16.2339 27.397 16.3574 27.7607 16.3574C28.0103 16.3574 28.246 16.2988 28.4423 16.1877L28.5851 16.1071C28.8537 15.9553 29.0354 15.7046 29.0828 15.4203C29.1305 15.1357 29.0406 14.8399 28.8362 14.609L26.8908 12.4073C26.7043 12.1965 26.6095 11.7593 26.6912 11.49L27.9554 7.33062C28.0252 7.10195 28.0159 6.88298 27.9349 6.69571C27.9267 6.66587 27.9234 6.63565 27.9125 6.60581L27.1049 4.36497C26.9453 3.92292 26.5219 3.62561 26.0503 3.62561C25.9213 3.62561 25.7941 3.64799 25.6728 3.69164L14.9249 7.56601C14.6443 7.6671 14.4198 7.8719 14.2922 8.1431C14.2183 8.30052 14.187 8.46839 14.1896 8.637L4.15265 12.254C3.18499 12.6028 2.68139 13.6734 3.03018 14.641L3.0742 14.7641Z" fill="#FFA412"/>
<path d="M35.7731 2.50831C35.2322 1.00795 33.7983 0 32.2043 0C31.7663 0 31.334 0.0760997 30.9184 0.225315C29.9653 0.568882 29.2028 1.26311 28.7716 2.18003C28.3404 3.09696 28.2922 4.12692 28.6358 5.08003C29.1767 6.58039 30.6107 7.58833 32.2047 7.58833C32.6422 7.58833 33.075 7.51223 33.4901 7.36302C34.4436 7.01945 35.2061 6.32523 35.637 5.4083C36.0682 4.49137 36.1167 3.46142 35.7731 2.50831Z" fill="#FFA412"/>
<path d="M34.506 16.9982H0.746075C0.334242 16.9982 0 17.3324 0 17.7442C0 18.1561 0.334242 18.4903 0.746075 18.4903H34.506C34.9178 18.4903 35.2521 18.1561 35.2521 17.7442C35.2521 17.3324 34.9178 16.9982 34.506 16.9982Z" fill="#FFA412"/>
</svg>
