<svg width="66" height="64" viewBox="0 0 33 34" fill="none" xmlns="http://www.w3.org/2000/svg">
<path d="M16.3088 19.4776C17.6749 19.4776 18.7823 18.3702 18.7823 17.0041C18.7823 15.638 17.6749 14.5305 16.3088 14.5305C14.9427 14.5305 13.8352 15.638 13.8352 17.0041C13.8352 18.3702 14.9427 19.4776 16.3088 19.4776Z" fill="#A5AFBC"/>
<path d="M27.6449 18.3364L26.9517 17.9423C26.4625 17.6569 26.4081 17.1948 26.4081 17.0045C26.4081 16.8142 26.4625 16.3521 26.9517 16.0667L27.6449 15.6726C28.3652 15.2513 28.8816 14.5853 29.0855 13.7834C29.303 12.9816 29.1942 12.1389 28.7865 11.4186L27.3866 8.99944C26.5304 7.51803 24.6141 7.00157 23.1327 7.8578L22.4396 8.25193C21.9503 8.53734 21.5154 8.34707 21.3659 8.25193C21.2028 8.17039 20.8223 7.88498 20.8223 7.32775V6.52589C20.8223 4.81344 19.4224 3.41357 17.7099 3.41357H14.9102C13.1977 3.41357 11.7979 4.81344 11.7979 6.52589V7.32775C11.7979 7.88498 11.4174 8.17039 11.2679 8.25193C11.1048 8.34707 10.6698 8.53734 10.1806 8.25193L9.48745 7.8578C8.00604 7.00157 6.10327 7.51803 5.24705 8.99944L3.84718 11.4186C2.97737 12.9 3.49386 14.8163 4.98886 15.6726L5.6684 16.0667C6.15768 16.3521 6.21203 16.8142 6.21203 17.0045C6.21203 17.1948 6.15768 17.6569 5.6684 17.9423L4.98886 18.3364C3.49386 19.1926 2.97737 21.1089 3.84718 22.5903L5.24705 25.0095C5.65477 25.7298 6.32075 26.2463 7.1362 26.4638C7.93807 26.6812 8.76713 26.5589 9.48745 26.1512L10.1806 25.757C10.6698 25.4716 11.1048 25.6619 11.2679 25.757C11.4174 25.8386 11.7979 26.124 11.7979 26.6812V27.4831C11.7979 29.1955 13.1977 30.5954 14.9102 30.5954H17.7099C19.4224 30.5954 20.8223 29.1955 20.8223 27.4831V26.6812C20.8223 26.124 21.2028 25.8386 21.3659 25.757C21.5154 25.6619 21.9503 25.4716 22.4396 25.757L23.1327 26.1512C23.853 26.5589 24.6821 26.6812 25.4975 26.4638C26.2994 26.2463 26.9653 25.7298 27.3866 25.0095L28.7865 22.5903C29.1942 21.87 29.303 21.0274 29.0855 20.2255C28.8816 19.4237 28.3652 18.7577 27.6449 18.3364ZM11.7979 17.0045C11.7979 14.5173 13.8229 12.4923 16.3101 12.4923C18.7972 12.4923 20.8223 14.5173 20.8223 17.0045C20.8223 19.4916 18.7972 21.5167 16.3101 21.5167C13.8229 21.5167 11.7979 19.4916 11.7979 17.0045Z" fill="#A5AFBC"/>
</svg>
