<svg width="56" height="54" viewBox="0 0 28 27" fill="none" xmlns="http://www.w3.org/2000/svg">
<path d="M12.125 6.60307C12.1254 6.81286 12.0842 7.02065 12.0037 7.2144C11.9232 7.40815 11.8051 7.58402 11.6562 7.73182L7.19187 12.1957C6.91134 12.4779 6.57766 12.7016 6.21013 12.854C5.8426 13.0064 5.4485 13.0844 5.05062 13.0835C4.75821 13.0831 4.4737 12.9886 4.23909 12.8141C4.00448 12.6396 3.83222 12.3942 3.74773 12.1143C3.66324 11.8343 3.67102 11.5346 3.7699 11.2595C3.86878 10.9843 4.05353 10.7482 4.29687 10.586L9.10625 7.37979C9.17648 7.33293 9.23276 7.26798 9.26913 7.19179C9.3055 7.1156 9.32062 7.031 9.31289 6.94693C9.30516 6.86285 9.27487 6.78243 9.22521 6.71415C9.17556 6.64587 9.10838 6.59227 9.03078 6.55901L3.15031 4.03994C3.01056 3.97978 2.89582 3.87327 2.82544 3.73836C2.75507 3.60346 2.73335 3.44842 2.76397 3.29937C2.79458 3.15033 2.87565 3.0164 2.9935 2.92015C3.11135 2.82391 3.25878 2.77125 3.41094 2.77104C3.85401 2.77099 4.29418 2.84238 4.71453 2.98244L11.0333 5.08901C11.3513 5.19456 11.628 5.39768 11.824 5.66949C12.02 5.9413 12.1253 6.26797 12.125 6.60307ZM2.25969 7.06479L3.58484 5.40776C3.6158 5.36834 3.64018 5.32418 3.65703 5.27698L5.97687 6.27119C5.71685 6.63655 5.37361 6.93478 4.97552 7.14124C4.57744 7.3477 4.13593 7.45646 3.6875 7.45854C3.18478 7.45832 2.69146 7.32228 2.25969 7.06479ZM0.875 4.64604V2.77104C0.885656 2.04833 1.17414 1.35747 1.68059 0.841793C2.18704 0.326115 2.87259 0.0252116 3.59498 0.0015136C4.31738 -0.0221843 5.02117 0.233143 5.56033 0.714519C6.09949 1.1959 6.43263 1.86637 6.49062 2.58682L5.01125 2.09369C4.49531 1.92132 3.95491 1.83347 3.41094 1.83354C3.04584 1.83319 2.69165 1.95795 2.40737 2.18703C2.12308 2.41611 1.92587 2.73568 1.84859 3.09251C1.7713 3.44933 1.81861 3.82186 1.98263 4.14804C2.14665 4.47422 2.41748 4.73435 2.75 4.8851V4.95026L1.54203 6.46057C1.11119 5.95417 0.874727 5.31092 0.875 4.64604ZM1.16141 15.8088C0.666308 14.8646 0.407207 13.8145 0.40625 12.7484V12.6921C0.406148 11.4996 0.7302 10.3294 1.34375 9.30682C1.58074 8.91209 1.88632 8.56286 2.24609 8.27557L2.38953 8.16119C3.23982 8.48382 4.18019 8.47579 5.02484 8.13869C5.17203 8.31838 5.31375 8.50229 5.45 8.69041L3.77469 9.80744C3.36443 10.0815 3.05316 10.4803 2.88681 10.9448C2.72047 11.4093 2.70786 11.915 2.85086 12.3872C2.99385 12.8594 3.28487 13.2731 3.68096 13.5673C4.07705 13.8615 4.55723 14.0206 5.05062 14.021C5.94318 14.0225 6.80975 13.7207 7.50828 13.1651L9.27031 18.199C8.27173 20.123 6.81058 21.7686 5.01828 22.9878C4.65125 22.3868 4.30156 21.7751 3.97484 21.1545L1.16141 15.8088ZM16.2167 16.9807C16.1662 16.9272 16.1037 16.8864 16.0344 16.8616C15.9652 16.8367 15.891 16.8285 15.818 16.8376C15.7449 16.8468 15.6751 16.873 15.6141 16.9141C15.553 16.9553 15.5026 17.0102 15.4667 17.0745L11.2747 24.6945C11.0365 25.1275 10.6923 25.493 10.2745 25.7569C9.85661 26.0208 9.37867 26.1744 8.88532 26.2035C8.39196 26.2325 7.8993 26.136 7.45338 25.9229C7.00746 25.7098 6.62284 25.3872 6.33547 24.9851C6.05422 24.5909 5.78422 24.1882 5.51937 23.7799C7.49259 22.446 9.09315 20.631 10.1698 18.5065L13.8261 14.119C14.1071 13.7815 14.4616 13.5128 14.8625 13.3335C15.2634 13.1541 15.7001 13.069 16.139 13.0845C16.5779 13.1 17.0074 13.2158 17.3946 13.423C17.7818 13.6302 18.1165 13.9233 18.373 14.2798L25.3573 23.9787L23.0839 24.3035L16.2167 16.9807ZM23.375 26.2085V25.2092L26.2081 24.8023C26.5778 24.8069 26.9307 24.9571 27.1901 25.2205C27.4496 25.4838 27.5946 25.8389 27.5937 26.2085H23.375Z" fill="#FFA412"/>
</svg>
