<svg width="54" height="50" viewBox="0 0 27 25" fill="none" xmlns="http://www.w3.org/2000/svg">
<path d="M6.38086 2.58154H2.37305C1.93583 2.58154 1.58203 2.93534 1.58203 3.37256C1.58203 3.80978 1.93583 4.16357 2.37305 4.16357H6.38086C6.81808 4.16357 7.17188 3.80978 7.17188 3.37256C7.17188 2.93534 6.81808 2.58154 6.38086 2.58154Z" fill="#FFA412"/>
<path d="M6.38086 8.90967H2.37305C1.93583 8.90967 1.58203 9.26346 1.58203 9.70068C1.58203 10.1379 1.93583 10.4917 2.37305 10.4917H6.38086C6.81808 10.4917 7.17188 10.1379 7.17188 9.70068C7.17188 9.26346 6.81808 8.90967 6.38086 8.90967Z" fill="#FFA412"/>
<path d="M4.79883 5.74561H0.791016C0.353795 5.74561 0 6.0994 0 6.53662C0 6.97384 0.353795 7.32764 0.791016 7.32764H4.79883C5.23605 7.32764 5.58984 6.97384 5.58984 6.53662C5.58984 6.0994 5.23605 5.74561 4.79883 5.74561Z" fill="#FFA412"/>
<path d="M25.418 9.70069H20.6192V6.53662C20.6192 5.14728 18.9196 4.41575 17.9181 5.41855L11.5904 11.7462C10.9725 12.3642 10.9725 13.3653 11.5904 13.9833L15.218 17.6108L10.7994 22.0294C10.1814 22.6474 10.1814 23.6485 10.7994 24.2665C11.4174 24.8844 12.4185 24.8845 13.0365 24.2665L18.5736 18.7294C19.1916 18.1114 19.1916 17.1103 18.5736 16.4923L14.9461 12.8647L17.4551 10.3558V11.2827C17.4551 12.1564 18.1635 12.8647 19.0371 12.8647H25.418C26.2916 12.8647 27 12.1564 27 11.2827C27 10.4091 26.2916 9.70069 25.418 9.70069Z" fill="#FFA412"/>
<path d="M14.773 1.66083C14.1441 1.24291 13.3099 1.3256 12.7769 1.85859L8.42626 6.20917C7.80827 6.82717 7.80827 7.82828 8.42626 8.44627C9.04426 9.06426 10.0454 9.06421 10.6634 8.44622L14.0971 5.01258L15.2537 5.84578L16.7992 4.30035C17.0577 4.04184 17.3626 3.84119 17.696 3.68451L14.773 1.66083Z" fill="#FFA412"/>
<path d="M10.4719 15.1018C10.0711 14.701 9.80349 14.2077 9.66243 13.6742L1.30725 22.0294C0.689251 22.6474 0.689251 23.6485 1.30725 24.2665C1.92519 24.8844 2.92635 24.8845 3.54434 24.2665L11.5904 16.2204L10.4719 15.1018Z" fill="#FFA412"/>
<path d="M21.4102 4.95459C22.7208 4.95459 23.7832 3.89214 23.7832 2.58154C23.7832 1.27095 22.7208 0.208496 21.4102 0.208496C20.0996 0.208496 19.0371 1.27095 19.0371 2.58154C19.0371 3.89214 20.0996 4.95459 21.4102 4.95459Z" fill="#FFA412"/>
</svg>
